<svg xmlns="http://www.w3.org/2000/svg" viewBox="0 0 721.29 792.24"><defs><style>.cls-1{fill:#c2185b;fill-rule:evenodd;}</style></defs><g id="Capa_2" data-name="Capa 2"><g id="Capa_1-2" data-name="Capa 1"><path class="cls-1" d="M394.83,298a142.74,142.74,0,1,1-68.38,0V0h68.29V248.4h.09ZM303.26,69.67c-38,3.12-74.07,9.46-103.95,19-44.71,14-82.15,35.78-112.33,65C57.5,183.84,35.76,221.53,21.51,266.22,7.26,311.14,0,365.49,0,429.77S7.26,548.38,21.51,593.32C35.76,638,57.5,675.68,87,705.86q45.27,43.9,112.33,65c89.35,28.5,233.31,28.5,322.66,0q67.08-21,112.33-65c29.48-30.18,51.22-67.88,65.47-112.54C714,548.38,721.29,494,721.29,429.77S714,311.14,699.77,266.22c-14.25-44.69-36-82.38-65.47-112.54-30.17-29.23-67.61-51-112.33-65-29.87-9.54-65.91-15.88-104-19v45.15c30.72,2.94,59.71,8.3,84,16.05,39.21,12.27,72,31.37,98.52,56.95,25.8,26.48,44.88,59.53,57.38,98.72,12.5,39.37,18.87,87,18.87,143.35s-6.37,104-18.87,143.39c-12.5,39.21-31.58,72.24-57.38,98.69q-39.75,38.44-98.52,57c-78.3,25-204.53,25-282.85,0q-58.78-18.44-98.5-57c-25.85-26.45-44.88-59.48-57.38-98.69-12.5-39.41-18.87-87-18.87-143.39s6.37-104,18.87-143.35c12.5-39.19,31.53-72.24,57.38-98.72,26.49-25.58,59.31-44.68,98.5-56.95,24.32-7.75,53.32-13.11,84-16.05ZM418,130.43v23.11c24.61,2.7,47.77,7.19,67.45,13.48q51.85,16.24,86.91,50.24C595.14,240.63,612,269.81,623,304.38c11,34.75,16.65,76.81,16.65,126.49s-5.6,91.8-16.65,126.53-27.86,63.72-50.62,87.09q-35.05,33.94-86.91,50.29c-69.15,22-180.55,22-249.66,0q-51.84-16.24-86.9-50.29C126.1,621.12,109.28,592,98.29,557.4S81.64,480.59,81.64,430.87s5.6-91.74,16.65-126.49c11-34.57,27.81-63.75,50.62-87.12Q184,183.36,235.81,167c19.69-6.29,42.85-10.78,67.45-13.48V130.43c-28.2,2.87-54.78,7.88-77.2,15-37.27,11.68-68.5,29.83-93.67,54.18-24.6,25.21-42.75,56.65-54.6,93.93-11.9,37.48-18,82.8-18,136.42s6.08,98.94,18,136.38,30,68.71,54.6,93.92q37.76,36.6,93.67,54.18c74.55,23.79,194.62,23.79,269.16,0q55.92-17.52,93.67-54.18c24.61-25.21,42.76-56.61,54.61-93.92s18-82.81,18-136.38-6.09-98.94-18-136.42c-11.85-37.28-30-68.72-54.61-93.93-25.16-24.35-56.39-42.5-93.67-54.18C472.81,138.31,446.22,133.3,418,130.43Zm-57.38,195A111.18,111.18,0,1,1,249.48,436.6,111.18,111.18,0,0,1,360.64,325.44Zm0,88.75a20.18,20.18,0,1,1-20.2,20.15A20.17,20.17,0,0,1,360.64,414.19Z"/></g></g></svg>