<svg xmlns="http://www.w3.org/2000/svg" viewBox="0 0 472.33 605.49"><defs><style>.cls-1{fill:#333;}.cls-2{fill:none;stroke:#fff;stroke-miterlimit:22.93;stroke-width:9px;}.cls-3,.cls-5,.cls-7{fill:#fff;}.cls-3,.cls-4{fill-rule:evenodd;}.cls-4{fill:#f60;}.cls-5{font-size:92.68px;}.cls-5,.cls-6,.cls-7{font-family:OpenSans-Extrabold, Open Sans;font-weight:800;}.cls-6{font-size:307.81px;fill:#666;}.cls-7{font-size:70.14px;}</style></defs><g id="Capa_2" data-name="Capa 2"><g id="Capa_1-2" data-name="Capa 1"><path class="cls-1" d="M36.48,38.29H435.86a32,32,0,0,1,32,32V569a32,32,0,0,1-32,32H36.48a32,32,0,0,1-32-32V70.27A32,32,0,0,1,36.48,38.29Z"/><path class="cls-2" d="M36.48,38.29H435.86a32,32,0,0,1,32,32V569a32,32,0,0,1-32,32H36.48a32,32,0,0,1-32-32V70.27A32,32,0,0,1,36.48,38.29Z"/><path class="cls-3" d="M50.05,60.43H422.29A21.43,21.43,0,0,1,443.66,81.8V557.48a21.43,21.43,0,0,1-21.37,21.38H50.05a21.44,21.44,0,0,1-21.38-21.38V81.8A21.44,21.44,0,0,1,50.05,60.43"/><path class="cls-4" d="M71.91,463.29H400.43a19.39,19.39,0,0,1,19.33,19.34v51.09a19.39,19.39,0,0,1-19.33,19.34H71.91a19.39,19.39,0,0,1-19.34-19.34V482.63a19.39,19.39,0,0,1,19.34-19.34"/><text class="cls-5" transform="translate(83.39 533.35)">meses </text><text class="cls-6" transform="translate(55.34 391.57)">12</text><path class="cls-4" d="M77,0H395.31a21.08,21.08,0,0,1,21,21v47.2a21.07,21.07,0,0,1-21,21H77a21.08,21.08,0,0,1-21-21V21A21.08,21.08,0,0,1,77,0"/><text class="cls-7" transform="translate(84.07 63.08)">Vigencia</text></g></g></svg>