<svg xmlns="http://www.w3.org/2000/svg" viewBox="0 0 822.17 553.78"><defs><style>.cls-1{fill:#cfc;fill-rule:evenodd;}.cls-2{fill:none;stroke:#093;stroke-miterlimit:22.93;stroke-width:17px;}</style></defs><g id="Capa_2" data-name="Capa 2"><g id="Capa_1-2" data-name="Capa 1"><path class="cls-1" d="M278.55,406.39,166.2,294l35-35,77.37,77.12L467.33,147.39l34.88,35.33L278.57,406.39Zm356.21-196.6V53.24A44.87,44.87,0,0,0,590,8.5H53.24A44.89,44.89,0,0,0,8.5,53.24v447.3a44.89,44.89,0,0,0,44.74,44.74H590a44.87,44.87,0,0,0,44.73-44.74V344L813.67,522.92V30.86Z"/><path class="cls-2" d="M278.55,406.39,166.2,294l35-35,77.37,77.12L467.33,147.39l34.88,35.33L278.57,406.39Zm356.21-196.6V53.24A44.87,44.87,0,0,0,590,8.5H53.24A44.89,44.89,0,0,0,8.5,53.24v447.3a44.89,44.89,0,0,0,44.74,44.74H590a44.87,44.87,0,0,0,44.73-44.74V344L813.67,522.92V30.86Z"/></g></g></svg>